<?xml version="1.0" encoding="utf-8"?>
<!-- Generator: Adobe Illustrator 16.0.0, SVG Export Plug-In . SVG Version: 6.00 Build 0)  -->
<!DOCTYPE svg PUBLIC "-//W3C//DTD SVG 1.1//EN" "http://www.w3.org/Graphics/SVG/1.1/DTD/svg11.dtd">
<svg version="1.1" id="Layer_1" xmlns="http://www.w3.org/2000/svg" xmlns:xlink="http://www.w3.org/1999/xlink" x="0px" y="0px"
	 width="300px" height="67.221px" viewBox="0 0 300 67.221" style="enable-background:new 0 0 300 67.221;" xml:space="preserve">
<g>
	<path style="fill-rule:evenodd;clip-rule:evenodd;fill:#FDB515;" d="M36.866,4.756c17.143,0,26.409,16.825,26.409,26.917
		c0,10.092-2.9,12.329-6.93,16.75l-0.068-19.124l-5.151-3.498l-0.617-6.21l-6.723-0.068l-0.684,1.884l-5.966-4.048l-1.003,0.605
		V4.767C36.376,4.761,36.62,4.756,36.866,4.756L36.866,4.756z M36.133,57.11h0.081h0.092l0.187-0.002h0.047h0.139l0.187,0l0.186,0
		h0.138h0.047l0.186,0.002h0.092l0.465,0.003l0.184,0.002l0.001,0.001l0.187,0.001l0.137,0.002l0.048,0.001l0.187,0.002l0.09,0.001
		l0.096,0.001l0.186,0.002l0.043,0.002h0.012l0.64,0.014h0.051l0.051,0.002l0.548,0.016l0.145,0.005h0.003l0.37,0.012l0.133,0.005
		l0.053,0.001l0.272,0.01h0l0.1,0.005l0.187,0.007l0.04,0.001l0.327,0.013h0.007l0.185,0.009l0.132,0.006l0.055,0.002l0.187,0.01
		l0.651,0.034l0.161,0.009c0.35,0.02,0.7,0.041,1.05,0.064l0.177,0.012l0.009,0c0.432,0.03,0.861,0.062,1.293,0.095l0.012,0.001
		c3.905,0.313,7.806,0.842,11.671,1.625c4.701,0.951,9.581,2.293,14.194,4.417l-2.641-1.668c-4.493-2.833-9.372-4.583-14.317-5.797
		c-2.025-0.497-4.064-0.897-6.111-1.209V33.562l-5.222-3.159l0,0l-6.702-4.05l-0.729,0.44V37.97h7.017v12.571h-7.017V57.11z
		 M36.133,17.964L17.254,29.369l-0.409,19.738c-4.03-4.421-7.852-8.293-7.852-18.386c0-9.947,10.424-25.509,27.14-25.953V17.964
		L36.133,17.964z M36.133,26.794l-11.188,6.768v21.271c-2.048,0.313-4.085,0.712-6.11,1.209c-4.948,1.214-9.828,2.964-14.32,5.797
		l-2.648,1.672c4.616-2.126,9.499-3.47,14.203-4.421c3.435-0.696,6.896-1.191,10.365-1.513l0.014-0.002l0.171-0.014l0.153-0.014
		l0.033-0.002l0.187-0.016l0.106-0.01l0.265-0.022l0.06-0.006l0.303-0.024l0.012-0.001l0.012-0.001h0.005
		c0.367-0.029,0.733-0.057,1.1-0.081l0.187-0.013l0.011-0.001l0.175-0.011l0.006-0.001c0.344-0.022,0.688-0.044,1.033-0.063
		l0.185-0.01l0.639-0.033l0.187-0.01l0.054-0.002l0.133-0.006l0.187-0.009h0.007l0.325-0.013l0.04-0.001l0.187-0.007l0.1-0.005
		l0.272-0.01l0.052-0.001l0.135-0.005c0.357-0.012,0.716-0.023,1.073-0.033l0.045-0.002h0.049l0.64-0.014h0.012l0.044-0.002
		l0.184-0.002l0.097-0.001l0.09-0.001l0.187-0.002l0.048-0.001l0.139-0.002l0.185-0.001l0.002-0.001l0.184-0.002l0.384-0.003v-6.57
		h-5.552V37.97h5.552V26.794z"/>
	<path style="fill:#0E2C4D;" d="M226.852,43.827v-6.514h2.656l-2.656-10.864v-6.715h6.373l8.39,29.047h-9.229l-1.319-4.954H226.852
		L226.852,43.827z M300,19.733l-10.228,18.859v10.188h-8.592V38.592l-10.27-18.859h9.711l4.914,10.349l4.836-10.349H300L300,19.733z
		 M270.837,48.781h-12.266l-8.352-19.665v19.665h-8.231V19.733h12.227l8.392,19.458V19.733h8.23V48.781z M226.852,19.733v6.715
		l-0.021-0.083l-2.638,10.947h2.658v6.514h-4.296l-1.317,4.954h-8.066v-3.938l7.426-25.109H226.852L226.852,19.733z M213.172,37.086
		c0.776-1.469,1.165-3.364,1.165-5.686v-1.878c0-2.322-0.389-4.212-1.165-5.671V37.086z M213.172,23.852v13.234
		c-0.443,0.841-1.014,1.543-1.712,2.105c-1.705,1.359-4.448,2.039-8.231,2.039h-1.537v-7.072h1.139c1.146,0,1.891-0.201,2.236-0.6
		c0.347-0.4,0.52-1.185,0.52-2.357v-1.638c0-1.039-0.252-1.772-0.759-2.197c-0.453-0.347-1.226-0.52-2.316-0.52h-0.819v-7.111h1.537
		c3.783,0,6.526,0.68,8.231,2.037C212.158,22.324,212.729,23.016,213.172,23.852L213.172,23.852z M213.172,44.842v3.938h-1.164
		L213.172,44.842z M201.691,19.733v7.111h-3.896v7.313h3.896v7.072h-3.896v7.551h-8.589V19.733H201.691L201.691,19.733z
		 M135.773,49.141v-7.471h0.701c1.811,0,2.956-0.414,3.436-1.239c0.373-0.561,0.56-1.838,0.56-3.836v-4.675
		c0-2.104-0.2-3.45-0.6-4.035c-0.507-0.72-1.639-1.079-3.396-1.079h-0.701v-7.432h1.897c4.316,0,7.319,0.898,9.012,2.697
		c1.691,1.798,2.536,4.867,2.536,9.21v5.912c0,4.342-0.852,7.419-2.557,9.23c-1.704,1.811-4.7,2.717-8.991,2.717H135.773
		L135.773,49.141z M186.729,48.781h-8.393v-18.22l-5.114,18.22h-8.432l-5.15-18.46v18.46h-8.392V19.733h12.092l5.647,19.331
		l5.635-19.331h12.106V48.781z M120.409,38.313c0,3.862-0.872,6.633-2.617,8.311c-1.744,1.678-4.562,2.518-8.451,2.518h-2.637
		c-4.314,0-7.325-0.919-9.03-2.758c-1.651-1.758-2.477-4.821-2.477-9.19v-5.912c0-4.343,0.846-7.413,2.543-9.21
		c1.692-1.799,4.688-2.697,8.984-2.697h2.157c4.082,0,6.966,0.719,8.644,2.158c1.818,1.571,2.724,4.354,2.724,8.35v0.958h-8.551
		v-0.918c0-1.225-0.299-2.051-0.906-2.477c-0.599-0.427-1.544-0.639-2.83-0.639c-1.711,0-2.823,0.439-3.336,1.319
		c-0.319,0.585-0.479,1.851-0.479,3.795v4.675c0,2.05,0.186,3.37,0.559,3.955c0.479,0.747,1.558,1.12,3.236,1.12
		c1.386,0,2.358-0.248,2.917-0.739c0.56-0.493,0.839-1.419,0.839-2.778v-1.039h8.71V38.313L120.409,38.313z M135.773,19.374v7.432
		h-0.737c-1.786,0-2.931,0.412-3.436,1.239c-0.347,0.585-0.521,1.877-0.521,3.875v4.675c0,2.078,0.2,3.409,0.6,3.995
		c0.506,0.719,1.624,1.08,3.356,1.08h0.737v7.471h-1.937c-4.315,0-7.324-0.919-9.03-2.758c-1.652-1.758-2.477-4.821-2.477-9.19
		v-5.912c0-4.343,0.845-7.413,2.537-9.21c1.691-1.799,4.682-2.697,8.97-2.697H135.773z"/>
	<path style="fill-rule:evenodd;clip-rule:evenodd;fill:#0E2C4D;" d="M73.177,67.805c-8.406-4.375-21.545-7.195-36.312-7.195
		c-14.765,0-27.904,2.819-36.31,7.195H73.177z"/>
	<path style="fill-rule:evenodd;clip-rule:evenodd;fill:#0E2C4D;" d="M36.866,0.709c17.327,0,31.375,14.049,31.375,31.374
		c0,8.383-3.293,15.996-8.65,21.624c-0.581-0.181-1.168-0.353-1.754-0.516v0.002l-0.099-0.029l-0.006-0.002l-0.06-0.016h-0.001
		l-0.456-0.124l-0.002,0l-0.025-0.007l-0.008-0.001l-0.034-0.01l-0.02-0.005l-0.012-0.003l-0.033-0.008l-0.067-0.018l-0.009-0.002
		L56.95,52.95l-0.003-0.001l-0.029-0.006l-0.033-0.01l0,0l-0.032-0.008l-0.028-0.007l-0.005,0l-0.055-0.015l-0.011-0.004
		L56.72,52.89l-0.016-0.003l-0.018-0.006l-0.032-0.007l-0.012-0.003l-0.022-0.006l-0.032-0.009l-0.005-0.001l-0.085-0.022
		l-0.009-0.002l-0.027-0.006l-0.005-0.002l-0.032-0.008l-0.024-0.006l-0.008-0.002l-0.035-0.009l-0.018-0.005l-0.014-0.003
		l-0.093-0.024l-0.006-0.001l-0.008-0.001l-0.025-0.006l-0.198-0.049l-0.02-0.005l-0.178-0.044l-0.005-0.001l-0.027-0.006
		l-0.033-0.008l-0.482-0.116v0V29.918l-4.646-2.812l0.142,0.085l-0.714-0.433v-6.276H50.03h-6.244v2.498l-6.92-4.184v-3.021
		l4.333,2.619v-0.501h11.419v7.407l5.219,3.154v17c2.469-3.862,3.901-8.449,3.901-13.372c0-13.733-11.138-24.873-24.873-24.873
		V0.709z M36.864,0.709h0.001v6.503c-13.733,0-24.872,11.139-24.872,24.873c0,4.923,1.432,9.51,3.901,13.372v-17L36.86,15.774
		l0.005,0.003v3.021l-0.004-0.001l-18.38,11.122v22.606v0.001L18,52.642l-0.032,0.008l-0.027,0.006l-0.005,0.001l-0.178,0.044
		l-0.021,0.005l-0.033,0.008l-0.007,0.001l-0.156,0.039l-0.004,0l-0.024,0.006l-0.008,0.001l-0.008,0.002l-0.091,0.024l-0.013,0.003
		l-0.02,0.005l-0.066,0.017l-0.034,0.009l-0.003,0.001l-0.028,0.006l-0.099,0.026l-0.032,0.008l-0.022,0.006l-0.013,0.004
		l-0.032,0.008l-0.017,0.004l-0.018,0.004l-0.032,0.007l-0.07,0.019l-0.028,0.008l-0.055,0.015l-0.011,0.002l-0.028,0.006
		l-0.004,0.001l-0.002,0.001l-0.053,0.015l-0.009,0.003l-0.052,0.014l-0.015,0.004l-0.032,0.009l-0.013,0.002l-0.02,0.005
		l-0.034,0.01l-0.008,0.002l-0.025,0.006l-0.008,0.002l-0.057,0.016l-0.03,0.008l-0.034,0.008l-0.004,0.001l-0.325,0.089H16.06
		L16,53.162l-0.006,0.003l-0.099,0.029v-0.002c-0.588,0.164-1.172,0.335-1.754,0.516C8.784,48.079,5.49,40.466,5.49,32.083
		C5.49,14.758,19.54,0.709,36.864,0.709z"/>
</g>
</svg>
